<?xml version="1.0" standalone="no"?>
<!DOCTYPE svg PUBLIC "-//W3C//DTD SVG 20010904//EN"
 "http://www.w3.org/TR/2001/REC-SVG-20010904/DTD/svg10.dtd">
<svg version="1.0" xmlns="http://www.w3.org/2000/svg"
 width="708.000000pt" height="708.000000pt" viewBox="0 0 708.000000 708.000000"
 preserveAspectRatio="xMidYMid meet">
<metadata>
Created by potrace 1.10, written by Peter Selinger 2001-2011
</metadata>
<g transform="translate(0.000000,708.000000) scale(0.100000,-0.100000)"
fill="#d64937" stroke="none">
<path d="M3335 6174 c-84 -14 -186 -39 -220 -54 -11 -5 -38 -16 -60 -25 -38
-16 -97 -44 -153 -74 -47 -25 -166 -107 -248 -172 -106 -84 -217 -192 -328
-319 -50 -58 -97 -111 -104 -119 -52 -54 -339 -461 -375 -531 -4 -8 -15 -27
-25 -41 -28 -42 -272 -449 -272 -454 0 -2 -19 -37 -43 -77 -49 -83 -130 -225
-141 -248 -4 -8 -27 -51 -51 -95 -86 -153 -231 -454 -300 -620 -21 -49 -44
-104 -51 -122 -8 -17 -14 -36 -14 -42 0 -6 -4 -19 -10 -29 -22 -38 -97 -291
-124 -417 -10 -44 -22 -98 -27 -120 -5 -22 -14 -109 -19 -193 -21 -324 23
-539 157 -765 136 -230 399 -443 708 -574 81 -35 242 -93 285 -103 19 -5 60
-16 90 -26 89 -27 179 -47 370 -83 51 -9 163 -25 370 -51 77 -10 253 -19 645
-36 149 -6 742 18 885 36 339 43 474 67 670 117 74 19 149 38 166 42 32 8 113
36 149 52 11 4 58 23 105 42 136 56 319 158 425 239 119 91 299 305 352 418
71 150 100 262 114 432 27 354 -60 765 -261 1223 -5 11 -19 43 -31 70 -40 93
-80 180 -93 205 -8 14 -54 105 -104 202 -50 97 -102 194 -115 215 -13 21 -27
45 -30 53 -4 8 -18 33 -30 55 -13 22 -41 72 -62 110 -36 65 -163 281 -185 315
-6 8 -15 24 -20 35 -6 11 -18 32 -28 47 -9 15 -37 60 -62 100 -24 40 -48 75
-52 76 -5 2 -8 7 -8 12 0 33 -307 459 -450 625 -88 102 -260 271 -335 331 -27
21 -56 45 -64 52 -24 23 -174 118 -236 150 -254 131 -513 177 -760 136z m373
-1347 c7 -36 -174 -421 -283 -602 -98 -163 -198 -308 -325 -470 -30 -38 -57
-72 -60 -75 -3 -3 -36 -41 -74 -85 -185 -214 -476 -474 -751 -669 -150 -107
-163 -116 -170 -116 -3 0 -28 -16 -55 -35 -28 -20 -63 -38 -78 -41 -26 -5 -27
-4 -45 73 -10 43 -23 146 -29 228 -17 234 17 494 89 680 8 22 19 49 23 60 40
102 80 174 102 180 12 3 34 11 48 17 70 30 89 38 140 58 79 30 77 29 285 131
211 103 446 239 635 367 129 88 329 237 390 291 32 28 41 30 95 28 49 -2 60
-5 63 -20z m362 -118 c5 -19 18 -65 29 -104 54 -194 59 -217 97 -415 104 -535
95 -1193 -21 -1715 -8 -33 -21 -94 -30 -135 -36 -159 -146 -499 -205 -635 -5
-11 -26 -60 -46 -110 -20 -49 -41 -94 -45 -98 -18 -21 -161 -38 -319 -39 -186
0 -399 32 -495 73 -11 5 -49 18 -85 30 -74 24 -168 68 -276 130 -66 38 -88 61
-66 71 9 4 97 100 172 187 30 35 63 71 73 80 9 8 17 21 17 27 0 7 4 14 8 16 8
3 62 74 138 180 46 64 195 303 242 388 73 131 272 540 272 559 0 5 6 22 14 38
16 32 27 57 55 131 12 28 30 75 42 104 21 52 83 228 99 283 5 17 34 116 65
220 31 105 62 213 70 240 7 28 20 75 28 105 8 30 22 91 31 135 10 44 21 96 26
115 5 20 14 66 19 104 6 39 17 76 27 87 17 19 18 19 37 1 10 -11 22 -34 27
-53z m548 -257 c256 -228 389 -415 501 -707 72 -188 102 -365 102 -600 -1
-231 -37 -428 -114 -619 -34 -83 -145 -291 -156 -291 -10 0 -13 72 -15 320 -1
197 -7 349 -14 395 -7 41 -17 104 -23 140 -38 237 -74 411 -129 610 -17 63
-35 129 -39 145 -12 46 -122 376 -136 410 -7 17 -23 57 -35 90 -12 33 -33 84
-47 114 -46 103 -16 101 105 -7z"/>
</g>
</svg>
